<svg xmlns="http://www.w3.org/2000/svg" width="1024" height="1024" viewBox="0 0 1024 1024" version="1.1"><path d="M 851.241 149.021 C 842.149 151.527, 828.266 157.478, 818.577 163.021 C 810.521 167.631, 795.710 178.370, 795.169 179.994 C 794.980 180.560, 796.637 181, 798.961 181 C 815.092 181, 829.405 190.801, 833.741 204.816 C 836.446 213.558, 836.132 236.142, 833.107 250.456 C 821.549 305.136, 789.281 373.682, 747.188 432.965 C 727.974 460.027, 698.398 494.475, 671.753 520.827 L 661.312 531.153 664.547 537.327 C 666.326 540.722, 669.716 548, 672.080 553.500 C 674.445 559, 676.509 563.678, 676.668 563.895 C 677.179 564.595, 707.685 534.041, 724.638 515.850 C 767.444 469.917, 796.430 429.360, 822.257 379.260 C 860.235 305.592, 883.796 224.738, 881.732 175.160 C 881.135 160.815, 879.475 154.787, 874.922 150.425 C 872.325 147.938, 871.051 147.526, 865.216 147.291 C 860.826 147.114, 855.986 147.713, 851.241 149.021 M 510.421 239.250 C 508.530 245.214, 455.191 363.645, 447.377 379.230 C 444.970 384.032, 443.007 388.307, 443.015 388.730 C 443.034 389.754, 454.069 401.969, 478.091 427.558 C 506.312 457.619, 516.561 470, 513.227 470 C 512.225 470, 480.535 453.531, 457.500 441.040 C 425.833 423.867, 426.079 423.982, 425.087 425.854 C 424.608 426.759, 414.310 449.775, 402.203 477 C 390.096 504.225, 376.498 534.375, 371.984 544 C 367.470 553.625, 356.597 577.250, 347.822 596.500 C 339.048 615.750, 328.110 639.600, 323.517 649.500 C 318.924 659.400, 312.822 672.900, 309.958 679.500 C 307.094 686.100, 302.793 695.407, 300.399 700.182 C 295.795 709.370, 266.697 762.950, 250.803 791.507 C 235.752 818.550, 228.790 832, 229.843 832 C 230.380 832, 239.199 826.581, 249.441 819.959 C 280.308 799.998, 300.222 788.513, 326.500 775.514 C 365.604 756.172, 399.592 743.654, 435.402 735.407 C 441.493 734.005, 446.609 732.725, 446.771 732.563 C 446.932 732.401, 446.052 726.921, 444.814 720.384 C 442.939 710.482, 442.559 704.998, 442.532 687.500 C 442.504 669.216, 442.801 665.093, 444.828 655.622 C 456.019 603.336, 488.883 565.138, 517.750 570.865 C 546.325 576.533, 572.913 614.176, 581.767 661.500 C 582.985 668.007, 583.440 675.763, 583.409 689.500 C 583.369 707.223, 582.788 713.102, 579.444 729.575 L 578.820 732.651 592.589 735.391 C 626.341 742.107, 665.019 756.002, 703.349 775.182 C 723.107 785.070, 731.121 789.610, 771.209 813.633 C 790.850 825.402, 807.625 835.303, 808.488 835.634 C 811.618 836.835, 800.633 815.277, 769.347 758.820 L 752.899 729.140 740.200 719.689 C 733.215 714.491, 717.487 703.207, 705.248 694.614 C 672.407 671.557, 659.090 661.652, 659.042 660.250 C 659.019 659.563, 659.273 659, 659.606 659 C 662.047 659, 675.476 663.270, 691.778 669.229 C 702.381 673.106, 711.295 676.039, 711.586 675.747 C 712.389 674.945, 664.325 567.236, 642.978 522 C 630.935 496.479, 626.097 485.878, 606.011 441 C 584.727 393.445, 569.403 359.756, 542.911 302.272 C 513.799 239.104, 512.800 237, 511.917 237 C 511.487 237, 510.814 238.012, 510.421 239.250 M 287.224 291.460 C 261.458 306.567, 237.841 329.426, 218.737 357.747 C 207.204 374.846, 194.355 403.358, 186.107 430.153 C 169.838 483.005, 168.833 545.859, 183.295 606 L 186.541 619.500 197.410 619.785 C 206.941 620.035, 239.473 616.860, 240.781 615.552 C 241.010 615.323, 239.851 611.618, 238.205 607.318 C 229.281 584.007, 222.368 556.590, 218.331 528.500 C 216.168 513.453, 215.876 475.020, 217.817 461 C 223.382 420.814, 233.379 388.139, 250.638 353.725 C 260.872 333.319, 275.947 310.774, 288.609 296.937 C 300.653 283.777, 300.611 283.611, 287.224 291.460 M 633.032 402.468 L 612.583 422.936 616.005 430.218 C 617.887 434.223, 619.716 437.862, 620.069 438.305 C 620.764 439.178, 631.374 423.246, 640.249 408 C 649.401 392.281, 654.906 382, 654.174 382 C 653.793 382, 644.279 391.211, 633.032 402.468 M 546.500 652.158 C 531.096 662.854, 484.834 689.758, 465.750 699.118 C 460.687 701.602, 459.005 702.938, 459.020 704.465 C 459.045 707.070, 460.946 720.280, 461.355 720.688 C 462.203 721.536, 526.752 690.356, 541 682.215 C 548.135 678.139, 564 667.845, 564 667.292 C 564 664.231, 558.068 644.963, 557.170 645.107 C 556.801 645.166, 552 648.339, 546.500 652.158 M 274.500 685.149 C 263.389 688.760, 236.965 695.079, 230.424 695.689 C 226.855 696.023, 223.736 696.618, 223.492 697.013 C 223.248 697.408, 226.676 703.045, 231.110 709.538 C 246.717 732.392, 259.037 747.296, 260.838 745.500 C 262.172 744.170, 278.389 714.273, 285.101 700.772 L 290.434 690.043 287.021 686.522 C 283.146 682.524, 282.723 682.477, 274.500 685.149 M 364.396 772.469 C 350.114 778.251, 322.091 791.055, 318.343 793.511 C 315.798 795.179, 315.239 797, 317.273 797 C 317.973 797, 321.010 798.629, 324.023 800.619 C 376.122 835.045, 438.015 855.124, 500.412 857.842 C 564.623 860.639, 624.548 848.296, 678.806 821.097 C 695.991 812.483, 716.928 799.637, 716.979 797.677 C 716.990 797.224, 708.188 792.576, 697.418 787.347 C 679.754 778.771, 677.672 777.986, 676.168 779.339 C 673.986 781.301, 658.981 788.719, 647 793.760 C 607.204 810.502, 574.645 817.347, 535 817.307 C 501.433 817.272, 483.129 813.446, 461.094 801.857 C 451.146 796.625, 441.731 792.788, 424.594 786.982 C 401.911 779.296, 386.579 772.972, 381.007 769.005 C 379.458 767.902, 378.036 767.037, 377.846 767.082 C 377.656 767.126, 371.603 769.551, 364.396 772.469" stroke="none" fill="#0084ff" fill-rule="evenodd"/><path d="M 487.004 161.742 C 485.081 161.974, 483.024 162.565, 482.433 163.056 C 481.841 163.547, 479.140 163.705, 476.429 163.408 C 470.421 162.750, 441.198 167.135, 426 170.976 C 417.913 173.020, 410.215 175.161, 406 176.539 C 403.525 177.348, 400.860 178.008, 400.079 178.005 C 399.297 178.002, 397.928 178.660, 397.036 179.468 C 396.144 180.275, 392.508 181.677, 388.957 182.584 C 385.406 183.490, 380.479 185.305, 378.008 186.616 C 375.537 187.927, 372.555 189, 371.380 189 C 370.206 189, 368.685 189.675, 368 190.500 C 367.315 191.325, 365.748 192, 364.517 192 C 363.286 192, 360.722 193.057, 358.819 194.348 C 354.308 197.409, 340.115 204.503, 336.874 205.317 C 335.483 205.666, 333.119 207.088, 331.621 208.476 C 330.123 209.864, 328.300 211, 327.571 211 C 326.842 211, 325.685 211.675, 325 212.500 C 324.315 213.325, 322.958 214, 321.985 214 C 321.011 214, 319.973 214.628, 319.678 215.396 C 319.384 216.164, 317.310 217.601, 315.071 218.589 C 312.832 219.577, 311 220.685, 311 221.051 C 311 221.881, 300.363 229, 299.122 229 C 298.623 229, 297.955 229.675, 297.638 230.500 C 297.322 231.325, 296.656 232, 296.158 232 C 295.660 232, 293.284 233.800, 290.877 236 C 288.470 238.200, 285.713 240, 284.750 240 C 283.788 240, 283 240.698, 283 241.552 C 283 242.406, 281.695 243.559, 280.100 244.115 C 278.505 244.671, 276.979 245.971, 276.709 247.004 C 276.439 248.037, 274.594 249.561, 272.609 250.390 C 270.624 251.219, 268.993 252.483, 268.984 253.199 C 268.964 254.851, 246.753 277, 245.117 277 C 244.446 277, 243.219 278.624, 242.390 280.609 C 241.561 282.594, 240.037 284.439, 239.004 284.709 C 237.971 284.979, 236.669 286.511, 236.110 288.113 C 235.552 289.716, 234.399 291.294, 233.547 291.620 C 232.696 291.947, 232 292.837, 232 293.599 C 232 294.360, 231.100 295.545, 230 296.232 C 228.900 296.919, 228 297.937, 228 298.494 C 228 299.051, 226.650 300.781, 225 302.338 C 223.350 303.895, 222 305.725, 222 306.403 C 222 307.082, 220.424 309.406, 218.498 311.568 C 216.572 313.731, 214.266 317.075, 213.373 319 C 212.481 320.925, 210.746 323.850, 209.519 325.500 C 207.119 328.727, 205.237 333.521, 206.643 332.828 C 211.986 330.195, 213 329.474, 213 328.306 C 213 327.561, 214.087 326.537, 215.415 326.032 C 216.744 325.527, 220.047 322.838, 222.757 320.057 C 225.466 317.276, 228.156 315, 228.734 315 C 229.313 315, 230.045 314.325, 230.362 313.500 C 230.678 312.675, 231.518 312, 232.228 312 C 232.938 312, 234.081 311.100, 234.768 310 C 235.455 308.900, 236.580 308, 237.268 308 C 237.956 308, 239.081 307.100, 239.768 306 C 240.455 304.900, 241.670 304, 242.468 304 C 243.266 304, 244.950 302.934, 246.210 301.632 C 248.331 299.438, 269.189 285, 270.237 285 C 270.494 285, 273.787 282.975, 277.555 280.500 C 281.323 278.025, 284.933 276, 285.577 276 C 286.962 276, 296.247 270.986, 297.068 269.794 C 297.752 268.802, 305.065 265, 306.288 265 C 306.764 265, 311.624 262.525, 317.088 259.500 C 322.551 256.475, 327.714 254, 328.561 254 C 330.701 254, 336.334 251.012, 337.300 249.365 C 337.740 248.614, 338.916 248, 339.913 248 C 340.911 248, 342.801 246.943, 344.114 245.651 C 345.426 244.359, 347.660 243.020, 349.078 242.675 C 350.496 242.330, 352.881 240.912, 354.379 239.524 C 355.877 238.136, 357.768 237, 358.580 237 C 360.415 237, 371.661 231.390, 374.885 228.867 C 376.197 227.840, 378.151 227, 379.227 227 C 380.304 227, 382.329 226.100, 383.727 225 C 385.126 223.900, 386.997 222.993, 387.885 222.985 C 390.256 222.963, 396.881 220.519, 398.232 219.168 C 398.874 218.526, 400.408 218, 401.641 218 C 402.874 218, 404.160 217.550, 404.500 217 C 404.840 216.450, 406.238 216, 407.607 216 C 408.976 216, 411.959 215.100, 414.236 214 C 416.513 212.900, 419.197 212, 420.201 212 C 421.206 212, 422.809 211.591, 423.764 211.092 C 424.719 210.592, 429.325 209.424, 434 208.496 C 438.675 207.568, 443.041 206.364, 443.702 205.822 C 444.363 205.279, 445.775 205.111, 446.840 205.449 C 447.905 205.787, 452.089 205.415, 456.138 204.623 C 460.187 203.831, 466.307 202.924, 469.737 202.608 C 473.167 202.292, 476.938 201.463, 478.117 200.767 C 479.474 199.965, 480.398 199.871, 480.634 200.511 C 480.879 201.175, 485.200 201.251, 493.254 200.733 C 506.922 199.853, 545.162 200.364, 546.918 201.449 C 547.540 201.834, 549.345 201.864, 550.929 201.516 C 552.620 201.144, 554.090 201.337, 554.489 201.982 C 554.863 202.587, 556.052 202.801, 557.132 202.458 C 558.212 202.115, 559.692 202.329, 560.420 202.933 C 561.148 203.538, 563.939 204.104, 566.622 204.191 C 569.305 204.278, 571.950 204.637, 572.500 204.987 C 573.917 205.890, 582.031 207.728, 592.314 209.478 C 597.162 210.302, 602.100 211.657, 603.287 212.488 C 604.474 213.320, 606.807 214.015, 608.473 214.034 C 610.138 214.053, 613.300 214.937, 615.500 216 C 617.700 217.063, 620.445 217.947, 621.601 217.966 C 622.757 217.985, 625.818 219.125, 628.404 220.500 C 630.990 221.875, 633.927 223, 634.930 223 C 635.934 223, 637.315 223.675, 638 224.500 C 638.685 225.325, 640.227 226, 641.428 226 C 642.629 226, 645.035 227.051, 646.776 228.335 C 648.516 229.619, 651.866 231.462, 654.220 232.430 C 663.721 236.340, 667 238.022, 667 238.987 C 667 239.544, 667.734 240, 668.632 240 C 671.407 240, 696.823 256.376, 697.735 258.751 C 698.022 259.499, 700.262 261.053, 702.713 262.205 C 705.165 263.358, 707.691 265.133, 708.326 266.150 C 708.961 267.168, 710.015 268, 710.668 268 C 711.321 268, 712.675 269.036, 713.677 270.303 C 714.680 271.570, 716.288 272.906, 717.250 273.272 C 718.212 273.638, 719 274.545, 719 275.288 C 719 276.031, 720.438 277.283, 722.196 278.070 C 723.953 278.856, 726.108 280.815, 726.984 282.422 C 727.859 284.029, 730.246 286.210, 732.288 287.270 C 734.330 288.329, 736 289.652, 736 290.209 C 736 291.645, 743.977 301, 745.202 301 C 746.905 301, 750.964 305.389, 750.983 307.250 C 750.992 308.212, 751.689 309, 752.531 309 C 753.374 309, 754.357 309.788, 754.716 310.750 C 755.075 311.712, 756.134 313.052, 757.070 313.727 C 758.006 314.401, 759.056 316.089, 759.405 317.477 C 759.753 318.865, 760.520 320, 761.109 320 C 762.653 320, 765.928 324.197, 765.967 326.227 C 765.985 327.177, 767.082 328.663, 768.405 329.530 C 769.727 330.396, 771.077 332.172, 771.404 333.475 C 771.732 334.779, 773.268 337.118, 774.819 338.673 C 776.369 340.228, 778.457 342.755, 779.459 344.288 C 781.242 347.018, 781.317 347.036, 783.057 345.170 C 785.512 342.534, 790 333.476, 790 331.156 C 790 330.105, 790.675 328.685, 791.500 328 C 792.325 327.315, 793 325.746, 793 324.512 C 793 323.279, 793.900 321.126, 795 319.727 C 796.100 318.329, 797 316.298, 797 315.215 C 797 314.131, 797.675 312.685, 798.500 312 C 799.325 311.315, 800 309.642, 800 308.282 C 800 305.566, 797.222 299.962, 795.250 298.700 C 794.563 298.260, 794 297.296, 794 296.557 C 794 295.818, 793.325 294.955, 792.500 294.638 C 791.675 294.322, 791 293.482, 791 292.772 C 791 292.062, 790.100 290.919, 789 290.232 C 787.900 289.545, 787 288.312, 787 287.492 C 787 286.671, 786.571 286, 786.047 286 C 785.523 286, 784.327 284.384, 783.390 282.410 C 782.453 280.435, 780.749 278.473, 779.603 278.049 C 778.457 277.625, 776.615 275.540, 775.509 273.416 C 774.404 271.292, 772.445 269.029, 771.156 268.388 C 768.120 266.878, 761 259.926, 761 258.471 C 761 256.856, 756.964 253.309, 753.732 252.085 C 752.210 251.508, 750.546 249.937, 750.036 248.595 C 749.496 247.175, 748.144 246.017, 746.804 245.827 C 745.537 245.647, 744.059 244.496, 743.521 243.268 C 742.982 242.040, 741.288 240.599, 739.757 240.065 C 738.226 239.532, 736.706 238.399, 736.380 237.547 C 736.053 236.696, 735.159 236, 734.393 236 C 733.627 236, 733 235.325, 733 234.500 C 733 233.675, 732.194 233, 731.210 233 C 730.225 233, 727.431 231.200, 725 229 C 722.569 226.800, 719.985 225, 719.259 225 C 718.532 225, 717.678 224.325, 717.362 223.500 C 717.045 222.675, 716.353 222, 715.823 222 C 715.294 222, 712.898 220.650, 710.500 219 C 708.102 217.350, 705.696 216, 705.153 216 C 704.611 216, 704.017 215.646, 703.833 215.213 C 703.465 214.342, 684.300 203.001, 683.194 202.999 C 682.812 202.998, 681.193 201.873, 679.594 200.499 C 677.996 199.124, 675.920 198, 674.979 198 C 674.039 198, 672.126 197.100, 670.727 196 C 669.329 194.900, 667.304 194, 666.227 194 C 665.151 194, 663.197 193.195, 661.885 192.210 C 658.933 189.995, 654.417 188, 652.354 188 C 651.501 188, 649.384 187.365, 647.651 186.589 C 645.918 185.813, 639.325 183.503, 633 181.455 C 626.675 179.408, 621.050 177.408, 620.500 177.011 C 619.377 176.200, 618.972 176.085, 603 172.042 C 587.333 168.077, 581.019 166.870, 579.821 167.611 C 579.265 167.955, 577.840 167.788, 576.655 167.240 C 572.202 165.183, 564.027 163.873, 559.695 164.523 C 556.720 164.969, 554.997 164.804, 554.516 164.025 C 554.044 163.261, 552.438 163.088, 549.863 163.523 C 547.356 163.947, 545.409 163.754, 544.491 162.993 C 543.508 162.177, 541.174 162.016, 537.137 162.484 C 533.255 162.935, 530.993 162.798, 530.553 162.085 C 529.900 161.029, 495.180 160.756, 487.004 161.742 M 839.380 376.850 C 839.034 378.582, 838.428 380, 838.035 380 C 837.642 380, 836.722 381.913, 835.990 384.250 C 835.259 386.587, 834.131 388.950, 833.484 389.500 C 831.870 390.871, 829 396.568, 829 398.399 C 829 399.223, 827.844 401.144, 826.431 402.669 C 825.018 404.194, 823.604 406.731, 823.289 408.307 C 822.974 409.882, 822.105 411.406, 821.358 411.693 C 820.611 411.980, 820 413.080, 820 414.138 C 820 415.197, 819.330 416.320, 818.511 416.634 C 816.872 417.263, 814.559 424.477, 815.505 426.007 C 815.831 426.536, 816.784 431.138, 817.621 436.234 C 818.458 441.330, 819.387 446.738, 819.685 448.250 C 820.499 452.379, 823.291 451.735, 825.411 446.929 C 826.399 444.690, 827.836 442.616, 828.604 442.322 C 829.372 442.027, 830 441.034, 830 440.115 C 830 439.196, 830.900 437.674, 832 436.732 C 833.100 435.790, 834 434.215, 834 433.232 C 834 432.249, 834.900 430.674, 836 429.732 C 837.100 428.790, 838 427.381, 838 426.600 C 838 425.416, 845.704 409.664, 849.618 402.845 C 850.754 400.866, 849.676 392.671, 847.995 390.500 C 847.569 389.950, 847.212 388.375, 847.202 387 C 847.178 383.594, 844.611 377.863, 842.088 375.579 C 840.030 373.718, 840.004 373.730, 839.380 376.850 M 875.620 378.635 C 874.664 381.311, 873.458 384.281, 872.940 385.236 C 872.423 386.191, 872 388.118, 872 389.518 C 872 390.918, 871.325 392.322, 870.500 392.638 C 869.675 392.955, 869 394.143, 869 395.278 C 869 396.414, 868.390 398.053, 867.645 398.921 C 865.957 400.887, 860.353 413.566, 859.574 417.180 C 859.257 418.654, 858.408 420.454, 857.689 421.180 C 856.056 422.827, 853 428.902, 853 430.499 C 853 431.154, 852.100 432.505, 851 433.500 C 849.900 434.495, 849 435.846, 849 436.501 C 849 438.386, 845.950 444, 844.927 444 C 844.417 444, 844 444.914, 844 446.031 C 844 447.149, 843.325 448.322, 842.500 448.638 C 841.675 448.955, 841 449.815, 841 450.550 C 841 452.278, 837.041 459, 836.023 459 C 835.594 459, 834.666 460.462, 833.961 462.250 C 833.257 464.038, 831.627 466.932, 830.340 468.683 C 829.053 470.434, 828 472.262, 828 472.746 C 828 473.230, 826.722 474.850, 825.161 476.346 C 823.599 477.842, 821.340 481.032, 820.140 483.434 C 818.940 485.836, 817.293 488.057, 816.479 488.370 C 815.666 488.682, 815 489.804, 815 490.863 C 815 491.922, 813.650 494.234, 812 496 C 810.350 497.766, 809 499.566, 809 500 C 809 500.434, 807.701 502.179, 806.113 503.879 C 804.525 505.579, 802.964 507.652, 802.644 508.485 C 802.324 509.318, 801.599 510, 801.031 510 C 800.464 510, 800 510.659, 800 511.465 C 800 512.270, 799.100 513.411, 798 514 C 796.900 514.589, 796 515.714, 796 516.500 C 796 517.286, 795.100 518.411, 794 519 C 792.900 519.589, 792 520.730, 792 521.535 C 792 522.341, 791.334 523, 790.519 523 C 789.705 523, 788.756 524.125, 788.411 525.500 C 788.066 526.875, 787.201 528, 786.489 528 C 785.778 528, 784.711 529.390, 784.119 531.088 C 783.527 532.786, 782.199 534.397, 781.168 534.666 C 780.137 534.936, 778.665 536.550, 777.897 538.253 C 777.129 539.956, 775.632 541.833, 774.571 542.425 C 772.074 543.817, 768.072 548.193, 768.032 549.576 C 767.993 550.888, 763.739 555, 762.421 555 C 761.120 555, 737 579.268, 737 580.577 C 737 582.090, 731.856 586.794, 727.896 588.904 C 726.028 589.899, 723.980 591.734, 723.345 592.983 C 722.710 594.231, 720.757 595.946, 719.006 596.794 C 717.256 597.642, 715.420 599.397, 714.926 600.693 C 714.433 601.990, 713.236 603.353, 712.265 603.722 C 711.294 604.092, 709.691 605.416, 708.702 606.665 C 707.714 607.914, 705.694 609.517, 704.215 610.226 C 700.598 611.959, 700.406 614.036, 703.450 618.521 C 704.852 620.588, 706 622.957, 706 623.785 C 706 625, 720.578 660.429, 721.691 661.918 C 721.862 662.148, 723.015 661.851, 724.252 661.259 C 725.488 660.666, 727.330 659.913, 728.345 659.586 C 729.360 659.258, 730.425 658.092, 730.712 656.995 C 730.999 655.898, 731.689 655, 732.245 655 C 733.454 655, 741.343 648.078, 741.864 646.561 C 742.466 644.808, 758.370 629, 759.532 629 C 761.069 629, 766.482 623.118, 768.735 619 C 769.788 617.075, 771.811 614.933, 773.230 614.241 C 774.649 613.548, 776.294 611.596, 776.884 609.903 C 777.474 608.209, 778.851 606.590, 779.942 606.305 C 781.034 606.019, 782.503 604.484, 783.208 602.893 C 783.912 601.302, 785.053 600, 785.744 600 C 786.435 600, 787 599.058, 787 597.906 C 787 596.650, 787.804 595.602, 789.011 595.287 C 790.117 594.998, 791.291 593.690, 791.619 592.381 C 791.948 591.071, 792.658 590, 793.198 590 C 794.640 590, 797.928 585.763, 797.967 583.856 C 797.985 582.951, 799.237 580.885, 800.750 579.264 C 802.263 577.643, 804.159 575.082, 804.965 573.573 C 805.771 572.063, 807.458 569.719, 808.715 568.363 C 809.972 567.006, 811 565.566, 811 565.161 C 811 564.756, 812.332 562.866, 813.959 560.962 C 815.587 559.058, 816.937 556.923, 816.959 556.219 C 816.982 555.514, 817.675 554.678, 818.500 554.362 C 819.325 554.045, 820 552.920, 820 551.862 C 820 550.803, 820.619 549.700, 821.375 549.410 C 822.131 549.120, 823.570 546.996, 824.573 544.691 C 825.576 542.386, 827.207 539.695, 828.198 538.711 C 829.189 537.727, 830 536.109, 830 535.116 C 830 534.123, 830.788 532.597, 831.750 531.725 C 832.712 530.854, 836.152 524.596, 839.394 517.820 C 842.636 511.044, 845.899 504.306, 846.644 502.846 C 847.390 501.386, 848 499.432, 848 498.503 C 848 497.575, 848.900 495.671, 850 494.273 C 851.100 492.874, 852 491.200, 852 490.553 C 852 489.905, 852.856 487.604, 853.903 485.438 C 855.510 482.110, 860.095 468.846, 866.497 449 C 868.746 442.028, 873.076 422.890, 875.434 409.500 C 879.741 385.032, 880.412 377.946, 878.649 375.534 C 877.494 373.955, 877.178 374.278, 875.620 378.635 M 882.110 455.250 C 882.049 456.212, 881.550 457, 881 457 C 879.261 457, 879.863 464.720, 881.750 466.618 C 883.419 468.298, 883.512 468.244, 883.768 465.440 C 883.915 463.823, 883.627 460.475, 883.128 458 C 882.628 455.525, 882.170 454.288, 882.110 455.250 M 861.195 503.750 C 858.336 510.212, 855.998 516.128, 855.999 516.896 C 855.999 517.665, 854.368 520.752, 852.374 523.756 C 850.379 526.761, 847.919 531.485, 846.907 534.254 C 845.895 537.024, 844.152 540.142, 843.033 541.184 C 841.915 542.225, 841 543.960, 841 545.039 C 841 546.118, 840.100 547.900, 839 549 C 837.900 550.100, 837 551.607, 837 552.350 C 837 553.092, 835.650 555.564, 834 557.841 C 832.350 560.119, 831 562.451, 831 563.023 C 831 563.595, 830.325 564.322, 829.500 564.638 C 828.675 564.955, 828 565.884, 828 566.703 C 828 568.311, 824.512 573.820, 822.373 575.590 C 821.649 576.189, 820.341 580.464, 819.467 585.090 C 818.592 589.715, 817.606 594.625, 817.274 596 C 816.943 597.375, 816.766 598.899, 816.882 599.387 C 816.997 599.875, 816.129 602.322, 814.952 604.825 C 813.776 607.328, 812.569 610.978, 812.271 612.938 C 811.973 614.897, 811.169 617.175, 810.483 618 C 809.797 618.825, 808.930 620.625, 808.555 622 C 808.181 623.375, 807.389 625.625, 806.797 627 C 803.520 634.605, 802.508 636.834, 800.839 640.136 C 799.827 642.136, 799 644.689, 799 645.809 C 799 646.930, 797.935 649.119, 796.634 650.673 C 793.804 654.055, 789 663.333, 789 665.417 C 789 666.233, 788.373 667.260, 787.608 667.700 C 786.842 668.140, 785.515 670.188, 784.659 672.250 C 783.803 674.313, 782.731 676, 782.278 676 C 781.825 676, 780.588 677.688, 779.528 679.750 C 776.691 685.271, 769.047 696, 767.949 696 C 767.427 696, 767 696.717, 767 697.594 C 767 698.470, 766.156 699.408, 765.124 699.678 C 764.092 699.948, 762.653 701.368, 761.925 702.834 C 761.197 704.300, 759.082 707.129, 757.224 709.121 L 753.846 712.742 757.423 714.952 C 759.390 716.168, 761 717.524, 761 717.965 C 761 718.406, 761.900 719.002, 763 719.290 C 764.100 719.577, 765 720.530, 765 721.406 C 765 722.283, 765.438 723, 765.973 723 C 766.509 723, 769.284 727.725, 772.140 733.500 C 774.997 739.275, 777.821 743.986, 778.417 743.968 C 780.048 743.920, 783 741.438, 783 740.115 C 783 739.475, 784.056 738.549, 785.347 738.058 C 786.637 737.568, 788.458 735.554, 789.394 733.583 C 790.329 731.612, 791.523 730, 792.047 730 C 792.571 730, 793 729.325, 793 728.500 C 793 727.675, 793.513 727, 794.140 727 C 795.601 727, 797.715 724.371, 799.567 720.250 C 800.370 718.462, 801.471 717, 802.013 717 C 802.556 717, 803 716.515, 803 715.923 C 803 715.331, 804.350 713.496, 806 711.846 C 807.650 710.196, 809 708.015, 809 707 C 809 705.985, 810.269 703.882, 811.819 702.327 C 813.370 700.772, 816.154 696.416, 818.007 692.646 C 819.860 688.877, 821.967 685.566, 822.688 685.289 C 823.410 685.013, 824 684.034, 824 683.115 C 824 682.196, 824.900 680.674, 826 679.732 C 827.100 678.790, 828 677.170, 828 676.132 C 828 675.094, 828.675 673.685, 829.500 673 C 830.325 672.315, 831 671.008, 831 670.094 C 831 669.180, 832.575 665.988, 834.500 663 C 836.425 660.012, 838 656.765, 838 655.784 C 838 654.803, 838.382 654, 838.848 654 C 839.315 654, 840.486 652.087, 841.451 649.750 C 842.416 647.413, 843.609 644.719, 844.103 643.764 C 844.596 642.809, 844.999 641.459, 844.997 640.764 C 844.996 640.069, 845.852 637.700, 846.901 635.500 C 847.949 633.300, 849.324 629.268, 849.956 626.539 C 850.588 623.811, 851.644 620.932, 852.303 620.143 C 852.961 619.353, 854.009 616.635, 854.631 614.104 C 855.253 611.572, 857.162 604.250, 858.873 597.834 C 860.584 591.417, 862.480 583.092, 863.085 579.334 C 868.148 547.887, 870.892 518.169, 868.848 516.906 C 867.882 516.309, 867.873 515.573, 868.807 513.525 C 871.010 508.689, 870.052 492, 867.571 492 C 866.923 492, 864.053 497.288, 861.195 503.750 M 324.500 606 C 324.160 606.550, 322.779 607, 321.430 607 C 320.082 607, 314.821 608.519, 309.739 610.377 C 304.658 612.234, 297.251 614.730, 293.279 615.925 C 289.308 617.119, 285.794 618.525, 285.470 619.048 C 285.147 619.572, 283.711 620, 282.279 620 C 279.972 620, 275.314 621.125, 265.500 624.051 C 257.164 626.536, 224.719 631.942, 211.551 633.039 C 190.522 634.791, 175.568 633.720, 157.874 629.194 C 153.254 628.012, 145.168 622.479, 143.944 619.662 C 143.427 618.473, 142.549 616.825, 141.992 616 C 141.434 615.175, 140.302 612.813, 139.476 610.750 C 138.649 608.688, 137.468 607, 136.851 607 C 135.376 607, 131 611.752, 131 613.355 C 131 614.043, 129.710 616.382, 128.134 618.553 C 126.557 620.724, 124.953 624.300, 124.570 626.500 C 124.186 628.700, 123.066 632.075, 122.082 634.001 C 119.013 640.002, 116.729 650.994, 117.279 657.107 C 117.673 661.476, 118.615 663.905, 121.546 668.107 C 123.614 671.073, 125.964 673.888, 126.766 674.363 C 127.569 674.837, 129.041 676.041, 130.037 677.037 C 132.605 679.605, 135.490 681, 138.234 681 C 139.535 681, 141.028 681.400, 141.550 681.889 C 143.520 683.734, 154.489 686.177, 158.161 685.590 C 160.364 685.238, 162.149 685.431, 162.540 686.064 C 163.444 687.528, 194.771 687.054, 209.253 685.357 C 224.026 683.626, 245.029 679.636, 258.500 676 C 262.900 674.813, 268.975 673.173, 272 672.355 C 275.025 671.538, 279.300 670.424, 281.500 669.879 C 283.700 669.334, 286.497 668.238, 287.715 667.444 C 288.933 666.650, 290.819 666, 291.906 666 C 292.993 666, 294.160 665.550, 294.500 665 C 294.840 664.450, 296.216 664, 297.559 664 C 300.389 664, 303.992 660.793, 304.018 658.250 C 304.028 657.288, 305.378 654.520, 307.018 652.100 C 308.658 649.679, 310 646.642, 310 645.350 C 310 644.057, 310.367 643, 310.815 643 C 311.934 643, 315 636.381, 315 633.966 C 315 632.885, 315.390 632, 315.867 632 C 316.898 632, 321 622.459, 321 620.061 C 321 619.141, 322.125 616.864, 323.500 615 C 324.875 613.136, 326 610.825, 326 609.865 C 326 608.904, 326.457 607.835, 327.016 607.490 C 328.135 606.799, 327.400 605, 326 605 C 325.515 605, 324.840 605.450, 324.500 606" stroke="none" fill="#f15dff" fill-rule="evenodd"/></svg>